Coordinates
version=1
nRows=13
nColumns=38
inDegrees=no

Units are S.I. units (second, meters, Newtons, ...)
If the header above contains a line with 'inDegrees', this indicates whether rotational values are in degrees (yes) or radians (no).

endheader
time	pelvis_tilt	pelvis_list	pelvis_rotation	pelvis_tx	pelvis_ty	pelvis_tz	hip_flexion_r	hip_adduction_r	hip_rotation_r	knee_angle_r	ankle_angle_r	subtalar_angle_r	mtp_angle_r	hip_flexion_l	hip_adduction_l	hip_rotation_l	knee_angle_l	ankle_angle_l	subtalar_angle_l	mtp_angle_l	lumbar_extension	lumbar_bending	lumbar_rotation	arm_flex_r	arm_add_r	arm_rot_r	elbow_flex_r	pro_sup_r	wrist_flex_r	wrist_dev_r	arm_flex_l	arm_add_l	arm_rot_l	elbow_flex_l	pro_sup_l	wrist_flex_l	wrist_dev_l
1.62	0.134713	1.52944	-1.60816	0.703055	0.424155	0.943418	0.163107	-0.15918	-0.176578	1.32111	-0.540798	0	0	0.0816924	0.0397913	-0.111267	0.365131	-0.226467	0	0	-0.0966754	0.0121207	-0.116607	-0.0456921	-0.269758	0.266651	0.766158	1.5708	0	0	-0.132511	-0.252767	0.288396	0.692647	1.5708	0	0
1.63	-0.0102848	1.53596	-1.46628	0.703282	0.416105	0.944099	0.196815	-0.147905	-0.130302	1.34321	-0.503314	0	0	0.0764461	0.0330549	-0.112832	0.361335	-0.222406	0	0	-0.0904506	0.0182398	-0.118713	-0.0449892	-0.272108	0.270718	0.762049	1.5708	0	0	-0.120761	-0.25236	0.291308	0.689842	1.5708	0	0
1.64	-0.149696	1.53655	-1.32772	0.703838	0.407931	0.945064	0.226943	-0.143524	-0.115831	1.36255	-0.484408	0	0	0.064606	0.0276599	-0.11458	0.35573	-0.219187	0	0	-0.0895915	0.0237689	-0.122924	-0.0443989	-0.275213	0.275237	0.759673	1.5708	0	0	-0.109913	-0.253611	0.295348	0.69099	1.5708	0	0
1.65	-0.372622	1.53938	-1.10648	0.704099	0.399944	0.945711	0.257792	-0.131797	-0.074387	1.36937	-0.466844	0	0	0.057613	0.0205724	-0.115081	0.351369	-0.215552	0	0	-0.0847495	0.030469	-0.127014	-0.042579	-0.278767	0.282821	0.756634	1.5708	0	0	-0.0999093	-0.254942	0.298048	0.692422	1.5708	0	0
1.66	-0.483534	1.53588	-0.994021	0.704876	0.391775	0.946683	0.283444	-0.129457	-0.073892	1.37788	-0.462523	0	0	0.0428669	0.0150581	-0.114505	0.344443	-0.214186	0	0	-0.0878751	0.036885	-0.129714	-0.0478615	-0.279393	0.269907	0.761531	1.5708	0	0	-0.0876574	-0.256517	0.302072	0.697298	1.5708	0	0
1.67	-0.610695	1.53409	-0.864884	0.705661	0.383494	0.947367	0.31035	-0.126833	-0.0730144	1.38191	-0.448441	0	0	0.031189	0.00965353	-0.113157	0.338098	-0.211753	0	0	-0.086727	0.0430569	-0.133959	-0.0512709	-0.282122	0.266008	0.764025	1.5708	0	0	-0.0766815	-0.257954	0.305494	0.70167	1.5708	0	0
1.68	-0.701538	1.53104	-0.77162	0.706518	0.375294	0.948057	0.334455	-0.124238	-0.0728174	1.38078	-0.434518	0	0	0.0185292	0.00429863	-0.11147	0.331646	-0.20992	0	0	-0.087207	0.0491951	-0.138328	-0.0544681	-0.284675	0.260981	0.766995	1.5708	0	0	-0.0656947	-0.259036	0.307025	0.707438	1.5708	0	0
1.69	-0.775181	1.52763	-0.696015	0.707315	0.367222	0.948637	0.357382	-0.12117	-0.0729097	1.37529	-0.420039	0	0	0.00575294	-0.00105267	-0.109889	0.325084	-0.207956	0	0	-0.0884632	0.0554545	-0.141979	-0.0576209	-0.287236	0.255002	0.770999	1.5708	0	0	-0.0548754	-0.259706	0.30655	0.714643	1.5708	0	0
1.7	-0.826054	1.52334	-0.64366	0.708082	0.359243	0.9491	0.378338	-0.117688	-0.073688	1.36641	-0.395285	0	0	-0.00817425	-0.00664909	-0.109321	0.318354	-0.204719	0	0	-0.0864097	0.0621294	-0.156024	-0.0331825	-0.32737	0.371428	0.77376	1.41288	0	0	-0.0519674	-0.25979	0.294777	0.722967	1.5708	0	0
1.71	-0.861676	1.51974	-0.606439	0.708767	0.351311	0.949529	0.3984	-0.115149	-0.0756994	1.35332	-0.376186	0	0	-0.0218423	-0.0113986	-0.109447	0.311679	-0.202826	0	0	-0.0959707	0.0681153	-0.149756	-0.0625368	-0.292021	0.241121	0.783245	1.57024	0	0	-0.0386071	-0.257512	0.286278	0.737735	1.5708	0	0
1.72	-0.867849	1.51552	-0.59889	0.709469	0.343424	0.949913	0.415658	-0.112696	-0.0788183	1.33562	-0.36074	0	0	-0.0373268	-0.015814	-0.110839	0.304584	-0.201074	0	0	-0.101276	0.0735261	-0.154294	-0.0618423	-0.296834	0.243695	0.788363	1.55577	0	0	-0.0316486	-0.257035	0.275041	0.751861	1.5708	0	0
1.73	-0.777535	1.508	-0.684072	0.710806	0.335235	0.950714	0.427583	-0.120759	-0.129832	1.32063	-0.354805	0	0	-0.0613225	-0.0186535	-0.110422	0.294164	-0.20093	0	0	-0.112947	0.0790199	-0.162239	-0.0613099	-0.302601	0.246559	0.795159	1.54123	0	0	-0.0250107	-0.256304	0.263343	0.767276	1.5708	0	0
1.74	-0.710719	1.49998	-0.745608	0.712098	0.327089	0.951471	0.437742	-0.128153	-0.179711	1.29224	-0.359566	0	0	-0.0852494	-0.0220325	-0.109433	0.283305	-0.200943	0	0	-0.124922	0.0849813	-0.171139	-0.0588462	-0.308228	0.251581	0.800556	1.52402	0	0	-0.0197849	-0.254365	0.247211	0.783548	1.5708	0	0
